<svg width="24" height="24" viewBox="0 0 24 24" fill="none" xmlns="http://www.w3.org/2000/svg">
<path fill-rule="evenodd" clip-rule="evenodd" d="M11.9997 1.33325C17.8868 1.33325 22.6663 6.11284 22.6663 11.9999C22.6663 17.887 17.8868 22.6666 11.9997 22.6666C6.11259 22.6666 1.33301 17.887 1.33301 11.9999C1.33301 6.11284 6.11259 1.33325 11.9997 1.33325ZM11.9997 5.33325C10.1891 5.33325 9.96209 5.34092 9.25101 5.37338C8.54142 5.40575 8.0568 5.51846 7.63272 5.68325C7.19434 5.85363 6.82255 6.08158 6.45192 6.45221C6.0813 6.82283 5.85334 7.19463 5.68297 7.633C5.51817 8.05704 5.40551 8.54167 5.37309 9.25125C5.34067 9.96233 5.33301 10.1894 5.33301 11.9999C5.33301 13.8105 5.34067 14.0375 5.37309 14.7486C5.40551 15.4582 5.51817 15.9428 5.68297 16.3668C5.85334 16.8052 6.0813 17.177 6.45192 17.5477C6.82255 17.9183 7.19434 18.1463 7.63272 18.3166C8.0568 18.4814 8.54142 18.5941 9.25101 18.6265C9.96209 18.6589 10.1891 18.6666 11.9997 18.6666C13.8102 18.6666 14.0373 18.6589 14.7483 18.6265C15.4579 18.5941 15.9425 18.4814 16.3666 18.3166C16.805 18.1463 17.1768 17.9183 17.5474 17.5477C17.918 17.177 18.146 16.8052 18.3164 16.3668C18.4811 15.9428 18.5938 15.4582 18.6262 14.7486C18.6587 14.0375 18.6663 13.8105 18.6663 11.9999C18.6663 10.1894 18.6587 9.96233 18.6262 9.25125C18.5938 8.54167 18.4811 8.05704 18.3164 7.633C18.146 7.19463 17.918 6.82283 17.5474 6.45221C17.1768 6.08158 16.805 5.85363 16.3666 5.68325C15.9425 5.51846 15.4579 5.40575 14.7483 5.37338C14.0373 5.34092 13.8102 5.33325 11.9997 5.33325ZM11.9997 6.53446C13.7798 6.53446 13.9906 6.54125 14.6936 6.57334C15.3436 6.603 15.6965 6.71158 15.9315 6.80288C16.2427 6.92379 16.4648 7.06829 16.698 7.30159C16.9313 7.53484 17.0758 7.75696 17.1967 8.06813C17.288 8.30304 17.3966 8.656 17.4263 9.306C17.4583 10.009 17.4651 10.2198 17.4651 11.9999C17.4651 13.78 17.4583 13.9908 17.4263 14.6938C17.3966 15.3438 17.288 15.6968 17.1967 15.9317C17.0758 16.2429 16.9313 16.465 16.698 16.6983C16.4648 16.9316 16.2427 17.076 15.9315 17.197C15.6965 17.2883 15.3436 17.3969 14.6936 17.4265C13.9907 17.4586 13.7799 17.4654 11.9997 17.4654C10.2195 17.4654 10.0087 17.4586 9.30576 17.4265C8.65576 17.3969 8.3028 17.2883 8.06788 17.197C7.75667 17.076 7.53459 16.9316 7.3013 16.6983C7.06801 16.465 6.92355 16.2429 6.80263 15.9317C6.71134 15.6968 6.60272 15.3438 6.57305 14.6938C6.54097 13.9908 6.53422 13.78 6.53422 11.9999C6.53422 10.2198 6.54097 10.009 6.57305 9.306C6.60272 8.656 6.71134 8.30304 6.80263 8.06813C6.92355 7.75696 7.06801 7.53484 7.3013 7.30159C7.53459 7.06829 7.75667 6.92379 8.06788 6.80288C8.3028 6.71158 8.65576 6.603 9.30576 6.57334C10.0088 6.54125 10.2196 6.53446 11.9997 6.53446ZM11.9997 8.5765C10.109 8.5765 8.57626 10.1092 8.57626 11.9999C8.57626 13.8906 10.109 15.4233 11.9997 15.4233C13.8904 15.4233 15.4231 13.8906 15.4231 11.9999C15.4231 10.1092 13.8904 8.5765 11.9997 8.5765ZM11.9997 14.2221C10.7724 14.2221 9.77747 13.2272 9.77747 11.9999C9.77747 10.7726 10.7724 9.77771 11.9997 9.77771C13.227 9.77771 14.2219 10.7726 14.2219 11.9999C14.2219 13.2272 13.227 14.2221 11.9997 14.2221ZM16.3584 8.44125C16.3584 8.88308 16.0002 9.24121 15.5583 9.24121C15.1165 9.24121 14.7584 8.88308 14.7584 8.44125C14.7584 7.99942 15.1165 7.64125 15.5583 7.64125C16.0002 7.64125 16.3584 7.99942 16.3584 8.44125Z" fill="white"/>
</svg>
