<svg width="32" height="32" viewBox="0 0 32 32" fill="none" xmlns="http://www.w3.org/2000/svg">
<path fill-rule="evenodd" clip-rule="evenodd" d="M31.4142 0.585786C30.6332 -0.195262 29.3668 -0.195262 28.5858 0.585786L16 13.1716L3.41421 0.585786C2.63316 -0.195262 1.36684 -0.195262 0.585787 0.585786C-0.154154 1.32573 -0.193098 2.50121 0.468954 3.287L0.585787 3.41421L13.1716 16L0.585786 28.5858L0.468954 28.713C-0.193099 29.4988 -0.154154 30.6743 0.585786 31.4142C1.36683 32.1953 2.63316 32.1953 3.41421 31.4142L16 18.8284L28.5858 31.4142C29.3668 32.1953 30.6332 32.1953 31.4142 31.4142C32.1542 30.6743 32.1931 29.4988 31.531 28.713L31.4142 28.5858L18.8284 16L31.4142 3.41421L31.531 3.287C32.1931 2.50121 32.1542 1.32573 31.4142 0.585786Z" fill="#E81C24"/>
</svg>
