<svg width="19" height="20" viewBox="0 0 19 20" fill="none" xmlns="http://www.w3.org/2000/svg">
<path d="M15.9999 13.75C15.5959 13.7499 15.196 13.8316 14.8244 13.9903C14.4528 14.149 14.1173 14.3814 13.838 14.6734L6.90054 10.7702C7.03492 10.2655 7.03492 9.7345 6.90054 9.22985L13.838 5.32657C14.3432 5.85032 15.022 6.17192 15.7473 6.23111C16.4726 6.2903 17.1946 6.08302 17.778 5.6481C18.3614 5.21319 18.7662 4.58048 18.9166 3.8685C19.067 3.15653 18.9527 2.41415 18.595 1.78043C18.2373 1.14672 17.6609 0.665153 16.9736 0.425954C16.2864 0.186756 15.5355 0.206336 14.8616 0.481027C14.1878 0.755719 13.6372 1.26667 13.3131 1.91817C12.9889 2.56966 12.9134 3.317 13.1007 4.02016L6.1632 7.92344C5.7488 7.49137 5.2146 7.19316 4.62933 7.06718C4.04405 6.9412 3.43447 6.99321 2.879 7.21653C2.32353 7.43985 1.84758 7.82425 1.51237 8.3203C1.17717 8.81634 0.998047 9.40133 0.998047 10C0.998047 10.5987 1.17717 11.1837 1.51237 11.6797C1.84758 12.1758 2.32353 12.5602 2.879 12.7835C3.43447 13.0068 4.04405 13.0588 4.62933 12.9328C5.2146 12.8069 5.7488 12.5086 6.1632 12.0766L13.1007 15.9799C12.9398 16.5854 12.9726 17.2261 13.1945 17.8121C13.4163 18.3981 13.816 18.8999 14.3376 19.2472C14.8591 19.5944 15.4763 19.7696 16.1025 19.7483C16.7287 19.7269 17.3325 19.51 17.8291 19.128C18.3258 18.746 18.6904 18.2181 18.8717 17.6184C19.0531 17.0186 19.0421 16.3772 18.8404 15.784C18.6386 15.1908 18.2562 14.6757 17.7468 14.3109C17.2373 13.9461 16.6265 13.75 15.9999 13.75Z" fill="#E81C24"/>
</svg>
