<svg width="32" height="32" viewBox="0 0 32 32" fill="none" xmlns="http://www.w3.org/2000/svg">
<path fill-rule="evenodd" clip-rule="evenodd" d="M15.9996 1.77783C23.849 1.77783 30.2218 8.15061 30.2218 16.0001C30.2218 23.8495 23.849 30.2223 15.9996 30.2223C8.15012 30.2223 1.77734 23.8495 1.77734 16.0001C1.77734 8.15061 8.15012 1.77783 15.9996 1.77783ZM15.9996 7.11117C13.5855 7.11117 13.2828 7.12139 12.3347 7.16466C11.3886 7.20783 10.7424 7.35811 10.177 7.57783C9.59245 7.805 9.09673 8.10894 8.60257 8.60311C8.1084 9.09728 7.80445 9.593 7.57729 10.1775C7.35757 10.7429 7.20734 11.3891 7.16412 12.3352C7.1209 13.2833 7.11068 13.586 7.11068 16.0001C7.11068 18.4141 7.1209 18.7168 7.16412 19.6649C7.20734 20.6111 7.35757 21.2572 7.57729 21.8226C7.80445 22.4071 8.1084 22.9028 8.60257 23.3971C9.09673 23.8912 9.59245 24.1952 10.177 24.4223C10.7424 24.642 11.3886 24.7923 12.3347 24.8354C13.2828 24.8787 13.5855 24.8889 15.9996 24.8889C18.4136 24.8889 18.7163 24.8787 19.6645 24.8354C20.6106 24.7923 21.2567 24.642 21.8221 24.4223C22.4066 24.1952 22.9023 23.8912 23.3966 23.3971C23.8907 22.9028 24.1947 22.4071 24.4218 21.8226C24.6415 21.2572 24.7918 20.6111 24.835 19.6649C24.8782 18.7168 24.8885 18.4141 24.8885 16.0001C24.8885 13.586 24.8782 13.2833 24.835 12.3352C24.7918 11.3891 24.6415 10.7429 24.4218 10.1775C24.1947 9.593 23.8907 9.09728 23.3966 8.60311C22.9023 8.10894 22.4066 7.805 21.8221 7.57783C21.2567 7.35811 20.6106 7.20783 19.6645 7.16466C18.7163 7.12139 18.4136 7.11117 15.9996 7.11117ZM15.9996 8.71278C18.373 8.71278 18.6541 8.72183 19.5915 8.76461C20.4581 8.80416 20.9287 8.94894 21.242 9.07066C21.6569 9.23189 21.953 9.42455 22.264 9.73561C22.5751 10.0466 22.7677 10.3428 22.929 10.7577C23.0507 11.0709 23.1955 11.5415 23.235 12.4082C23.2778 13.3455 23.2868 13.6266 23.2868 16.0001C23.2868 18.3735 23.2778 18.6546 23.235 19.5919C23.1955 20.4586 23.0507 20.9292 22.929 21.2424C22.7677 21.6574 22.5751 21.9535 22.264 22.2645C21.953 22.5756 21.6569 22.7682 21.242 22.9294C20.9287 23.0512 20.4581 23.196 19.5915 23.2355C18.6543 23.2783 18.3732 23.2873 15.9996 23.2873C13.626 23.2873 13.3449 23.2783 12.4077 23.2355C11.541 23.196 11.0704 23.0512 10.7572 22.9294C10.3422 22.7682 10.0461 22.5756 9.73507 22.2645C9.42401 21.9535 9.2314 21.6574 9.07018 21.2424C8.94845 20.9292 8.80362 20.4586 8.76407 19.5919C8.72129 18.6546 8.71229 18.3735 8.71229 16.0001C8.71229 13.6266 8.72129 13.3455 8.76407 12.4082C8.80362 11.5415 8.94845 11.0709 9.07018 10.7577C9.2314 10.3428 9.42401 10.0466 9.73507 9.73561C10.0461 9.42455 10.3422 9.23189 10.7572 9.07066C11.0704 8.94894 11.541 8.80416 12.4077 8.76461C13.345 8.72183 13.6261 8.71278 15.9996 8.71278ZM15.9996 11.4355C13.4786 11.4355 11.435 13.4791 11.435 16.0001C11.435 18.521 13.4786 20.5646 15.9996 20.5646C18.5205 20.5646 20.5641 18.521 20.5641 16.0001C20.5641 13.4791 18.5205 11.4355 15.9996 11.4355ZM15.9996 18.963C14.3632 18.963 13.0366 17.6364 13.0366 16.0001C13.0366 14.3637 14.3632 13.0371 15.9996 13.0371C17.636 13.0371 18.9625 14.3637 18.9625 16.0001C18.9625 17.6364 17.636 18.963 15.9996 18.963ZM21.8112 11.2552C21.8112 11.8443 21.3336 12.3218 20.7445 12.3218C20.1554 12.3218 19.6778 11.8443 19.6778 11.2552C19.6778 10.6661 20.1554 10.1885 20.7445 10.1885C21.3336 10.1885 21.8112 10.6661 21.8112 11.2552Z" fill="#E81C24"/>
</svg>
